<svg width="206" height="237" viewBox="0 0 206 237" fill="none" xmlns="http://www.w3.org/2000/svg">
<g clip-path="url(#clip0_35_1888)">
<path d="M38.2 201.8C35 201.8 32.6667 201.067 31.2 199.6C29.7333 198.133 29 195.8 29 192.6V63C29 61.2667 29.2 59.8 29.6 58.6C30.1333 57.4 30.8667 56.4 31.8 55.6L57.6 33.8C58.2667 33.2667 59.1333 32.8667 60.2 32.6C61.4 32.2 62.6667 32 64 32H127.8C141.667 32 151.867 34.7333 158.4 40.2C164.933 45.5333 168.2 53.6667 168.2 64.6V74.2C168.2 78.8667 167.533 82.8667 166.2 86.2C165 89.5333 163.133 92.2 160.6 94.2L160 94.6C167.2 96.2 172.6 99.6667 176.2 105C179.8 110.2 181.6 117.467 181.6 126.8V145.2C181.6 151.2 180.733 156.4 179 160.8C177.267 165.067 174.667 168.667 171.2 171.6L145.4 193.4C142.067 196.2 137.867 198.267 132.8 199.6C127.733 201.067 121.8 201.8 115 201.8H38.2ZM140.8 178C154 178 163.733 175.333 170 170C176.4 164.667 179.6 156.4 179.6 145.2V126.8C179.6 117.067 177.533 109.667 173.4 104.6C169.267 99.5333 162.933 96.6 154.4 95.8C158.4 94.0667 161.333 91.4667 163.2 88C165.2 84.4 166.2 79.8 166.2 74.2V64.6C166.2 54.2 163.067 46.5333 156.8 41.6C150.533 36.5333 140.867 34 127.8 34H64C61.4667 34 59.6 34.6 58.4 35.8C57.3333 36.8667 56.8 38.6667 56.8 41.2V170.8C56.8 173.333 57.3333 175.2 58.4 176.4C59.6 177.467 61.4667 178 64 178H140.8ZM132.8 160H79V52H119.6C125.067 52 129.533 52.6 133 53.8C136.467 54.8667 139.133 56.4 141 58.4C142.867 60.2667 144.133 62.4667 144.8 65C145.467 67.5333 145.8 70.2667 145.8 73.2V86C145.8 90 145.067 93.6667 143.6 97C142.267 100.333 138.733 102.733 133 104.2C138.467 104.2 142.933 104.8 146.4 106C149.867 107.067 152.533 108.667 154.4 110.8C156.267 112.8 157.467 115.2 158 118C158.667 120.8 159 123.867 159 127.2V140C159 142.933 158.667 145.667 158 148.2C157.333 150.6 156.067 152.667 154.2 154.4C152.467 156.133 149.867 157.533 146.4 158.6C142.933 159.533 138.4 160 132.8 160ZM119.6 54H81V104.2H119.6C125.067 104.2 129.4 103.733 132.6 102.8C135.8 101.733 138.2 100.4 139.8 98.8C141.533 97.0667 142.6 95.1333 143 93C143.533 90.7333 143.8 88.4 143.8 86V73.2C143.8 67.8667 142.267 63.3333 139.2 59.6C136.133 55.8667 129.6 54 119.6 54ZM101.8 68H118.8C121.333 68 123.2 68.6667 124.4 70C125.733 71.3333 126.4 73.3333 126.4 76V81.6C126.4 84.2667 125.733 86.2667 124.4 87.6C123.2 88.9333 121.333 89.6 118.8 89.6H101.8V68ZM133 106.2H81V158H132.8C142.8 158 149.333 156.4 152.4 153.2C155.467 149.867 157 145.467 157 140V127.2C157 121.2 155.467 116.2 152.4 112.2C149.467 108.2 143 106.2 133 106.2ZM101.8 120.4H127.8C130.333 120.4 132.2 121.067 133.4 122.4C134.733 123.6 135.4 125.533 135.4 128.2V136C135.4 138.667 134.733 140.667 133.4 142C132.2 143.333 130.333 144 127.8 144H101.8V120.4Z" fill="#624A94"/>
<path d="M139.8 178H63C60.4667 178 58.6 177.467 57.4 176.4C56.3333 175.2 55.8 173.333 55.8 170.8V41.2C55.8 38.6667 56.3333 36.8667 57.4 35.8C58.6 34.6 60.4667 34 63 34H126.8C139.867 34 149.533 36.5333 155.8 41.6C162.067 46.5333 165.2 54.2 165.2 64.6V74.2C165.2 79.8 164.2 84.4 162.2 88C160.333 91.4667 157.4 94.0667 153.4 95.8C161.933 96.6 168.267 99.5333 172.4 104.6C176.533 109.667 178.6 117.067 178.6 126.8V145.2C178.6 156.4 175.4 164.667 169 170C162.733 175.333 153 178 139.8 178ZM78 160H131.8C137.4 160 141.933 159.533 145.4 158.6C148.867 157.533 151.467 156.133 153.2 154.4C155.067 152.667 156.333 150.6 157 148.2C157.667 145.667 158 142.933 158 140V127.2C158 123.867 157.667 120.8 157 118C156.467 115.2 155.267 112.8 153.4 110.8C151.533 108.667 148.867 107.067 145.4 106C141.933 104.8 137.467 104.2 132 104.2C137.733 102.733 141.267 100.333 142.6 97C144.067 93.6667 144.8 90 144.8 86V73.2C144.8 70.2667 144.467 67.5333 143.8 65C143.133 62.4667 141.867 60.2667 140 58.4C138.133 56.4 135.467 54.8667 132 53.8C128.533 52.6 124.067 52 118.6 52H78V160ZM118.6 54C128.6 54 135.133 55.8667 138.2 59.6C141.267 63.3333 142.8 67.8667 142.8 73.2V86C142.8 88.4 142.533 90.7333 142 93C141.6 95.1333 140.533 97.0667 138.8 98.8C137.2 100.4 134.8 101.733 131.6 102.8C128.4 103.733 124.067 104.2 118.6 104.2H80V54H118.6ZM100.8 68V89.6H117.8C120.333 89.6 122.2 88.9333 123.4 87.6C124.733 86.2667 125.4 84.2667 125.4 81.6V76C125.4 73.3333 124.733 71.3333 123.4 70C122.2 68.6667 120.333 68 117.8 68H100.8ZM132 106.2C142 106.2 148.467 108.2 151.4 112.2C154.467 116.2 156 121.2 156 127.2V140C156 145.467 154.467 149.867 151.4 153.2C148.333 156.4 141.8 158 131.8 158H80V106.2H132ZM100.8 120.4V144H126.8C129.333 144 131.2 143.333 132.4 142C133.733 140.667 134.4 138.667 134.4 136V128.2C134.4 125.533 133.733 123.6 132.4 122.4C131.2 121.067 129.333 120.4 126.8 120.4H100.8Z" fill="#EA5772"/>
<path d="M63 180C59.8 180 57.4667 179.267 56 177.8C54.5333 176.333 53.8 174 53.8 170.8V41.2C53.8 38 54.5333 35.6667 56 34.2C57.4667 32.7333 59.8 32 63 32H126.8C140.667 32 150.867 34.7333 157.4 40.2C163.933 45.5333 167.2 53.6667 167.2 64.6V74.2C167.2 79 166.533 83.0667 165.2 86.4C163.867 89.7333 161.867 92.4667 159.2 94.6C166.4 96.3333 171.733 99.8 175.2 105C178.8 110.2 180.6 117.467 180.6 126.8V145.2C180.6 156.933 177.267 165.667 170.6 171.4C164.067 177.133 153.8 180 139.8 180H63ZM139.8 178C153 178 162.733 175.333 169 170C175.4 164.667 178.6 156.4 178.6 145.2V126.8C178.6 117.067 176.533 109.667 172.4 104.6C168.267 99.5333 161.933 96.6 153.4 95.8C157.4 94.0667 160.333 91.4667 162.2 88C164.2 84.4 165.2 79.8 165.2 74.2V64.6C165.2 54.2 162.067 46.5333 155.8 41.6C149.533 36.5333 139.867 34 126.8 34H63C60.4667 34 58.6 34.6 57.4 35.8C56.3333 36.8667 55.8 38.6667 55.8 41.2V170.8C55.8 173.333 56.3333 175.2 57.4 176.4C58.6 177.467 60.4667 178 63 178H139.8ZM131.8 160H78V52H118.6C124.067 52 128.533 52.6 132 53.8C135.467 54.8667 138.133 56.4 140 58.4C141.867 60.2667 143.133 62.4667 143.8 65C144.467 67.5333 144.8 70.2667 144.8 73.2V86C144.8 90 144.067 93.6667 142.6 97C141.267 100.333 137.733 102.733 132 104.2C137.467 104.2 141.933 104.8 145.4 106C148.867 107.067 151.533 108.667 153.4 110.8C155.267 112.8 156.467 115.2 157 118C157.667 120.8 158 123.867 158 127.2V140C158 142.933 157.667 145.667 157 148.2C156.333 150.6 155.067 152.667 153.2 154.4C151.467 156.133 148.867 157.533 145.4 158.6C141.933 159.533 137.4 160 131.8 160ZM118.6 54H80V104.2H118.6C124.067 104.2 128.4 103.733 131.6 102.8C134.8 101.733 137.2 100.4 138.8 98.8C140.533 97.0667 141.6 95.1333 142 93C142.533 90.7333 142.8 88.4 142.8 86V73.2C142.8 67.8667 141.267 63.3333 138.2 59.6C135.133 55.8667 128.6 54 118.6 54ZM100.8 68H117.8C120.333 68 122.2 68.6667 123.4 70C124.733 71.3333 125.4 73.3333 125.4 76V81.6C125.4 84.2667 124.733 86.2667 123.4 87.6C122.2 88.9333 120.333 89.6 117.8 89.6H100.8V68ZM117.8 70H102.8V87.6H117.8C119.8 87.6 121.2 87.1333 122 86.2C122.933 85.1333 123.4 83.6 123.4 81.6V76C123.4 74 122.933 72.5333 122 71.6C121.2 70.5333 119.8 70 117.8 70ZM132 106.2H80V158H131.8C141.8 158 148.333 156.4 151.4 153.2C154.467 149.867 156 145.467 156 140V127.2C156 121.2 154.467 116.2 151.4 112.2C148.467 108.2 142 106.2 132 106.2ZM100.8 120.4H126.8C129.333 120.4 131.2 121.067 132.4 122.4C133.733 123.6 134.4 125.533 134.4 128.2V136C134.4 138.667 133.733 140.667 132.4 142C131.2 143.333 129.333 144 126.8 144H100.8V120.4ZM126.8 122.4H102.8V142H126.8C128.8 142 130.2 141.533 131 140.6C131.933 139.533 132.4 138 132.4 136V128.2C132.4 126.2 131.933 124.733 131 123.8C130.067 122.867 128.667 122.4 126.8 122.4Z" fill="#210954"/>
</g>
<defs>
<clipPath id="clip0_35_1888">
<rect width="206" height="237" fill="white"/>
</clipPath>
</defs>
</svg>
