<svg width="500" height="500" viewBox="0 0 500 500" fill="none" xmlns="http://www.w3.org/2000/svg">
<path d="M167.75 142.661L225 85.1466V324.956C225 331.588 227.634 337.949 232.322 342.638C237.011 347.328 243.37 349.963 250 349.963C256.63 349.963 262.989 347.328 267.678 342.638C272.366 337.949 275 331.588 275 324.956V85.1466L332.25 142.661C334.574 145.005 337.339 146.865 340.386 148.135C343.432 149.404 346.7 150.058 350 150.058C353.3 150.058 356.568 149.404 359.614 148.135C362.661 146.865 365.426 145.005 367.75 142.661C370.093 140.336 371.953 137.571 373.222 134.523C374.492 131.476 375.145 128.208 375.145 124.906C375.145 121.605 374.492 118.337 373.222 115.29C371.953 112.242 370.093 109.477 367.75 107.152L267.75 7.12712C265.372 4.85053 262.569 3.06596 259.5 1.87581C253.413 -0.625269 246.587 -0.625269 240.5 1.87581C237.431 3.06596 234.628 4.85053 232.25 7.12712L132.25 107.152C129.919 109.484 128.07 112.252 126.809 115.298C125.547 118.344 124.898 121.609 124.898 124.906C124.898 128.204 125.547 131.469 126.809 134.515C128.07 137.561 129.919 140.329 132.25 142.661C134.581 144.992 137.348 146.842 140.394 148.104C143.439 149.366 146.704 150.015 150 150.015C153.296 150.015 156.561 149.366 159.606 148.104C162.652 146.842 165.419 144.992 167.75 142.661ZM475 299.95C468.37 299.95 462.011 302.585 457.322 307.274C452.634 311.964 450 318.324 450 324.956V424.981C450 431.613 447.366 437.974 442.678 442.663C437.989 447.353 431.63 449.988 425 449.988H75C68.3696 449.988 62.0107 447.353 57.3223 442.663C52.6339 437.974 50 431.613 50 424.981V324.956C50 318.324 47.3661 311.964 42.6777 307.274C37.9893 302.585 31.6304 299.95 25 299.95C18.3696 299.95 12.0107 302.585 7.32233 307.274C2.63392 311.964 0 318.324 0 324.956V424.981C0 444.877 7.90177 463.959 21.967 478.028C36.0322 492.096 55.1088 500 75 500H425C444.891 500 463.968 492.096 478.033 478.028C492.098 463.959 500 444.877 500 424.981V324.956C500 318.324 497.366 311.964 492.678 307.274C487.989 302.585 481.63 299.95 475 299.95Z" fill="white"/>
</svg>
